<svg width="149" height="24" viewBox="0 0 149 24" fill="none" xmlns="http://www.w3.org/2000/svg">
<path d="M148.061 13.0607C148.646 12.4749 148.646 11.5251 148.061 10.9393L138.515 1.3934C137.929 0.807612 136.979 0.807612 136.393 1.3934C135.808 1.97918 135.808 2.92893 136.393 3.51472L144.879 12L136.393 20.4853C135.808 21.0711 135.808 22.0208 136.393 22.6066C136.979 23.1924 137.929 23.1924 138.515 22.6066L148.061 13.0607ZM100 13.5H147V10.5H100V13.5Z" fill="#F6CE42"/>
<path d="M48.0607 13.0607C48.6464 12.4749 48.6464 11.5251 48.0607 10.9393L38.5147 1.3934C37.9289 0.807612 36.9792 0.807612 36.3934 1.3934C35.8076 1.97918 35.8076 2.92893 36.3934 3.51472L44.8787 12L36.3934 20.4853C35.8076 21.0711 35.8076 22.0208 36.3934 22.6066C36.9792 23.1924 37.9289 23.1924 38.5147 22.6066L48.0607 13.0607ZM0 13.5H47V10.5H0V13.5Z" fill="#1A1E21"/>
</svg>
