<svg width="1001" height="237" viewBox="0 0 1001 237" fill="none" xmlns="http://www.w3.org/2000/svg">
<path d="M213.778 0.592987C189.1 0.372137 165.793 12.8448 165.793 12.8448C165.793 12.8448 142.313 27.0676 133.736 48.3788C133.292 50.4487 86.7743 140.679 86.7743 140.679C27.8092 123.626 -0.698624 158.179 0.199909 171.516C14.4455 207.257 84.1061 181.832 91.0614 173.557C94.9114 171.491 97.3922 173.965 97.3922 173.965C97.3922 173.965 114.452 185.324 116.38 186.218C118.307 187.112 128.02 185.81 128.02 185.81C135.574 185.236 149.052 170.431 150.684 170.289C153.203 170.297 156.242 186.69 166.611 186.422C179.054 188.827 192.542 174.783 192.542 174.783C194.318 172.27 194.993 174.169 194.993 174.169C194.706 189.573 207.216 186.856 210.918 186.422C223.211 181.419 253.321 151.75 249.919 160.488C248.736 162.855 239.505 180.091 239.505 180.091C238.471 184.683 241.751 184.38 241.751 184.38L263.394 184.176C267.095 181.963 286.031 141.18 283.813 146.806C290.638 134.454 306.07 130.061 306.07 130.061C307.551 129.62 306.886 131.694 306.886 131.694L281.567 181.929C281.125 183.259 283.608 184.584 283.608 184.584L305.66 184.176C308.624 183.889 327.1 145.988 327.1 145.988C332.129 136.371 349.97 130.878 349.97 130.878C353.226 130.293 350.99 133.532 350.99 133.532L333.635 169.881C330.997 186.384 344.862 187.351 350.786 186.626C356.71 185.755 366.344 182.418 385.293 168.247C389.146 165.298 389.99 168.265 389.99 168.861C390.153 189.155 412.45 186.83 412.45 186.83C419.116 188.478 446.174 187.84 468.805 142.721C460.53 173.362 477.4 181.705 477.994 182.747C478.588 183.783 487.657 186.951 491.061 186.218C525.577 189.278 540.066 135.575 540.066 135.575C547.833 129.748 549.805 128.075 552.93 126.385C560.635 127.143 562.703 127.361 566.407 127.815C569.367 128.861 566.684 131.626 565.793 132.51C530.56 159.969 546.025 181.143 547.213 180.704C562.631 201.633 594.637 165.151 600.709 164.572C608.434 195.408 631.932 181.984 632.971 182.133C630.9 188.201 624.874 203.207 619.699 212.968C608.895 228.199 591.929 211.131 591.929 211.131L587.641 210.927C585.57 213.587 586.825 216.645 586.825 216.645C591.272 223.769 596.966 233.626 614.594 236.045C632.368 236.835 642.567 217.257 642.567 217.257C642.567 217.257 667.485 171.275 669.112 165.796C676.661 159.003 689.763 149.195 699.536 142.109C705.902 140.795 683.601 177.159 681.976 182.337C681.533 185.301 682.588 185.402 682.588 185.402C682.588 185.402 699.545 186.244 702.802 185.81C706.06 185.374 721.885 147.775 727.509 140.68C732.392 132.545 748.131 124.956 748.131 124.956C751.538 124.225 750.377 128.223 750.377 128.223L729.551 170.291C724.527 187.901 738.671 187.992 741.189 187.852C748.002 187.423 773.45 172.74 773.45 172.74C777.003 170.082 776.922 174.374 776.922 174.374C776.628 180.004 782.708 189.226 787.743 188.055C805.815 189.733 833.147 159.71 833.889 162.529C834.04 163.123 823.679 183.563 823.679 183.563C824.126 185.193 825.926 186.014 825.926 186.014C825.926 186.014 843.424 186.206 847.57 186.218C851.717 186.23 870.581 141.145 874.727 138.636C883.164 129.921 892.397 129.094 892.694 129.243C895.806 129.106 875.089 162.199 873.91 168.859C869.333 187.959 882.894 187.647 882.894 187.647C893.707 189.308 920.221 170.497 920.668 172.126C923.774 169.027 924.14 172.74 924.14 172.74V174.169C925.931 189.583 934.962 187.851 934.962 187.851C945.332 190.547 985.804 156.607 985.804 156.607L979.678 149.869L954.36 168.247C952.287 169.281 951.091 167.022 951.091 167.022L979.474 112.294C980.805 110.966 978.861 109.435 978.861 109.435H953.339C951.562 111.355 950.481 112.702 950.481 112.702L927.408 157.629L902.089 170.085C899.424 170.816 900.047 168.044 900.047 168.044C900.047 168.044 921.141 126.643 922.915 120.871C924.099 118.209 923.528 113.929 923.528 113.929C916.554 97.7593 888.381 118.691 884.528 118.83C884.379 118.978 888.001 111.478 888.001 111.478C889.036 109.257 886.98 109.231 886.98 109.231L863.294 109.027C863.294 109.027 863.364 107.344 862.476 108.823C861.588 110.302 846.347 138.842 846.347 138.842L808.164 167.635C804.905 168.221 805.713 166.002 805.713 166.002L833.687 111.886L833.891 109.64L806.938 109.027L784.682 151.91C783.498 153.241 760.18 166.41 760.18 166.41C756.624 167.44 756.504 164.368 756.504 164.368L777.128 124.344C781.799 108.729 764.742 104.138 756.3 107.189C750.594 109.245 745.274 111.07 745.274 111.07C745.274 111.07 743.588 111.508 745.07 109.435C747.583 105.887 773.655 54.2991 773.655 54.2991C774.249 52.8171 772.839 51.8484 772.839 51.8484L749.154 51.6443C747.228 52.5247 746.908 53.8909 746.908 53.8909L713.216 117.808L685.447 138.638C683.67 139.818 683.609 137.82 683.609 137.82L697.493 111.478V108.822L672.583 108.618L668.498 111.885C665.681 105.951 651.385 106.021 650.939 106.167C621.018 105.192 604.18 147.621 604.18 147.621C587.531 162.056 579.839 166.547 574.37 167.429C569.819 167.685 568.447 163.956 568.447 163.956C562.109 144.534 601.934 126.179 601.934 126.179C603.268 125.44 609.006 108.211 608.265 108.209C607.523 108.208 559.296 108.153 558.851 108.005C556.183 106.962 543.302 119.086 539.454 121.891C528.173 88.8248 484.466 113.834 478.402 128.63C475.798 129.324 474.63 128.84 473.297 128.834C473.736 117.578 472.242 110.559 465.13 106.983C461.277 104.9 445.53 106.983 445.53 106.983L472.277 53.6853C473.608 52.0586 471.051 50.4182 471.051 50.4182H446.958C445.921 51.0092 444.712 52.4592 444.712 52.4592C444.712 52.4592 399.187 140.644 396.523 145.376C393.861 150.108 360.586 167.839 360.586 167.839C360.879 164.582 382.311 127.312 383.048 120.054C383.921 101.244 362.424 107.189 362.424 107.189C362.424 107.189 350.252 115.27 339.148 120.871C336.761 100.271 318.728 107.393 318.728 107.393L298.31 120.667L301.985 111.07L302.803 107.393L278.299 106.781C275.489 108.848 270.541 120.054 270.541 120.054L262.782 134.349L227.867 160.692C224.462 162.607 226.233 158.038 226.233 158.038C226.233 158.038 249.806 111.796 250.326 111.476C252.251 110.296 250.735 107.394 250.735 107.394L227.049 107.189C227.049 107.189 223.038 114.005 222.15 114.745C210.88 98.859 173.691 105.306 153.747 152.32C151.198 155.462 149.225 157.661 147.826 158.242C124.441 185.581 111.071 158.446 111.071 158.446L152.931 78.6002C152.931 78.6002 171.975 35.9868 183.967 23.8721C214.317 3.36656 222.966 22.6475 222.966 22.6475C225.588 28.7247 233.585 50.6635 192.338 61.2429C186.927 61.7775 188.662 64.3044 188.662 64.3044C200.667 74.561 215.411 73.4948 215.411 73.4948C229.929 76.3491 269.269 54.6982 255.022 19.9927C243.905 5.46235 228.584 0.725496 213.778 0.592987V0.592987ZM836.748 54.7088C815.124 55.5359 813.858 84.5616 835.931 87.585C857.408 88.2399 861.489 55.6684 836.748 54.7073V54.7088ZM983.965 54.7088C960.562 54.7911 962.306 87.8196 984.374 87.585C1006.44 85.8715 1004.56 55.5054 983.965 54.7073V54.7088ZM211.328 116.582C218.249 116.74 217.039 125.035 215.82 126.589C216.562 129.108 203.772 150.684 203.772 150.684C188.974 169.161 181.924 165.795 181.924 165.795C181.924 165.795 176.853 165.091 180.7 155.177C184.842 148.226 192.886 130.137 201.322 119.643C205.764 117.36 209.019 116.529 211.328 116.582V116.582ZM443.486 118.623C450.746 119.534 447.162 126.179 447.162 126.179L427.151 165.591C420.788 173.427 414.9 170.696 414.9 170.696C411.641 168.314 417.147 159.261 417.147 159.261L435.932 122.504C439.63 118.661 443.486 118.623 443.486 118.623V118.623ZM651.755 118.828C657.42 117.823 659.72 122.504 659.72 122.504C659.72 122.504 660.049 123.256 659.31 127.405C657.687 133.772 640.117 164.162 640.117 164.162C632.718 171.549 626.232 170.084 626.232 170.084C622.53 169.036 623.986 163.55 623.986 163.55C623.986 163.55 638.213 134.372 645.018 122.095C647.683 120.14 649.867 119.162 651.755 118.828V118.828ZM515.563 119.032C518.693 118.504 521.664 119.794 521.076 126.383C517.382 134.224 502.801 163.029 499.842 167.019C499.251 170.428 484.361 175.981 488.202 163.55C488.202 163.55 509.088 124.484 509.234 122.708C509.307 121.818 512.435 119.559 515.563 119.032V119.032ZM45.3245 151.095C57.5324 150.803 68.6011 154.769 68.6011 154.769C68.6011 154.769 65.7456 164.288 38.7896 168.655C26.0518 167.883 19.3965 167.939 19.392 163.347C25.6071 154.097 35.829 151.321 45.3245 151.094V151.095Z" fill="white"/>
</svg>
