<svg width="180" height="93" viewBox="0 0 180 93" fill="none" xmlns="http://www.w3.org/2000/svg">
<path d="M170.5 37H9.5C4.25329 37 0 41.2533 0 46.5C0 51.7467 4.25329 56 9.5 56H170.5C175.747 56 180 51.7467 180 46.5C180 41.2533 175.747 37 170.5 37Z" fill="black"/>
<path d="M170 0.5H10C4.75329 0.5 0.5 4.75329 0.5 10C0.5 15.2467 4.7533 19.5 10 19.5H170C175.247 19.5 179.5 15.2467 179.5 10C179.5 4.75329 175.247 0.5 170 0.5Z" fill="black"/>
<path d="M170.5 74H9.5C4.2533 74 0 78.2533 0 83.5C0 88.7467 4.25329 93 9.5 93H170.5C175.747 93 180 88.7467 180 83.5C180 78.2533 175.747 74 170.5 74Z" fill="black"/>
</svg>
